<svg id="Layer_1" data-name="Layer 1" xmlns="http://www.w3.org/2000/svg" viewBox="0 0 181.37 27.39"><defs><style>.cls-1{fill:#fff;}</style></defs><title>your_mirror</title><path class="cls-1" d="M13.54,77.27h-4l4.25-26.78h4Z" transform="translate(-9.58 -50.23)"/><path class="cls-1" d="M18.87,57.58A18,18,0,0,0,20,54.52h-1.4l.65-4h3.46l-.47,3a13.23,13.23,0,0,1-1.44,4.14Z" transform="translate(-9.58 -50.23)"/><path class="cls-1" d="M28,50.48l-3.6,22.64h4.82l-.65,4.14H19.84l4.25-26.78Z" transform="translate(-9.58 -50.23)"/><path class="cls-1" d="M38,50.48l-3.6,22.64h4.82l-.65,4.14H29.81l4.25-26.78Z" transform="translate(-9.58 -50.23)"/><path class="cls-1" d="M47.63,50.48h5.8c3.28,0,4.32,1.76,3.92,4.36l-.65,4.1c-.4,2.34-1.33,3.31-2.59,3.71.83.36,2.05,1.33,1.66,3.92l-.9,5.69c-.47,3-1.62,5-4.64,5H43.38Zm1.62,14.58-1.33,8.42h1.37c1.26,0,1.48-.65,1.66-1.8l.76-4.86c.18-1.15-.14-1.76-1.44-1.76ZM51,54.12,49.9,61.07h1.19c1,0,1.4-.54,1.58-1.66l.58-3.6c.18-1.12,0-1.69-1.15-1.69Z" transform="translate(-9.58 -50.23)"/><path class="cls-1" d="M68.62,50.48,68,54.37H63l-1.12,7h3.92l-.65,4.07H61.24L60,73.2h5.22l-.65,4.07H55.41l4.25-26.78Z" transform="translate(-9.58 -50.23)"/><path class="cls-1" d="M77.69,66.25l-1.76,11H72L73.76,66,72.61,50.48h3.74l.22,10,3.31-10h3.74Z" transform="translate(-9.58 -50.23)"/><path class="cls-1" d="M89.14,50.23c3.85,0,5.29,2.41,4.72,6.16L91.51,71.25c-.58,3.67-1.91,6.33-5.51,6.33h-.68c-3.74,0-5.22-2.59-4.64-6.33L83,56.39c.58-3.74,1.84-6.16,5.44-6.16Zm-2.05,5.94L84.67,71.51c-.25,1.26,0,2.12,1.15,2.12s1.37-.83,1.62-2.12l2.41-15.33c.25-1.44-.22-2.05-1.19-2.05S87.34,54.77,87.08,56.17Z" transform="translate(-9.58 -50.23)"/><path class="cls-1" d="M96.3,50.48h4L96.95,71.76c-.18,1.15.11,1.87,1.08,1.87s1.3-.72,1.48-1.87l3.38-21.27h4l-3.31,20.84c-.61,3.89-2.09,6.3-5.54,6.3h-.54c-3.49,0-5.15-2.3-4.54-6.3Z" transform="translate(-9.58 -50.23)"/><path class="cls-1" d="M108.25,77.27h-4l4.25-26.78h6c2.84,0,4.18,1.3,3.74,4.14l-.76,4.79c-.32,2.05-1.26,3-2.3,3.38.61.4,1.55,1.08,1.26,3.13L115,75a4.54,4.54,0,0,0,0,2.09l0,.18h-3.92a4.91,4.91,0,0,1,0-2.27l1.26-7.92c.25-1.4,0-1.76-1.15-1.76h-1Zm2.48-15.77h1.12c1.12,0,1.44-.65,1.62-1.8l.61-3.85c.18-1.15,0-1.73-1.19-1.73h-1Z" transform="translate(-9.58 -50.23)"/><path class="cls-1" d="M124.09,50.48H129l-.36,14.15,4.14-14.15h4.93l-4.25,26.78h-3.71L132.51,60,127.4,77.27h-1.58L126.11,60l-2.77,17.31h-3.49Z" transform="translate(-9.58 -50.23)"/><path class="cls-1" d="M139.07,77.27h-4l4.25-26.78h4Z" transform="translate(-9.58 -50.23)"/><path class="cls-1" d="M144.68,77.27h-4L145,50.48h6c2.84,0,4.18,1.3,3.74,4.14l-.76,4.79c-.32,2.05-1.26,3-2.3,3.38.61.4,1.55,1.08,1.26,3.13L151.45,75a4.54,4.54,0,0,0,0,2.09l0,.18h-3.92a4.91,4.91,0,0,1,0-2.27l1.26-7.92c.25-1.4,0-1.76-1.15-1.76h-1Zm2.48-15.77h1.12c1.12,0,1.44-.65,1.62-1.8l.61-3.85c.18-1.15,0-1.73-1.19-1.73h-1Z" transform="translate(-9.58 -50.23)"/><path class="cls-1" d="M156.63,77.27h-4l4.25-26.78h6c2.84,0,4.18,1.3,3.74,4.14l-.76,4.79c-.32,2.05-1.26,3-2.3,3.38.61.4,1.55,1.08,1.26,3.13L163.4,75a4.54,4.54,0,0,0,0,2.09l0,.18h-3.92a4.91,4.91,0,0,1,0-2.27l1.26-7.92c.25-1.4,0-1.76-1.15-1.76h-1Zm2.48-15.77h1.12c1.12,0,1.44-.65,1.62-1.8l.61-3.85c.18-1.15,0-1.73-1.19-1.73h-1Z" transform="translate(-9.58 -50.23)"/><path class="cls-1" d="M173.95,50.23c3.85,0,5.29,2.41,4.72,6.16l-2.34,14.87c-.58,3.67-1.91,6.33-5.51,6.33h-.68c-3.74,0-5.22-2.59-4.64-6.33l2.34-14.87c.58-3.74,1.84-6.16,5.44-6.16Zm-2.05,5.94-2.41,15.33c-.25,1.26,0,2.12,1.15,2.12s1.37-.83,1.62-2.12l2.41-15.33c.25-1.44-.22-2.05-1.19-2.05S172.15,54.77,171.89,56.17Z" transform="translate(-9.58 -50.23)"/><path class="cls-1" d="M180.86,77.27h-4l4.25-26.78h6c2.84,0,4.18,1.3,3.74,4.14l-.76,4.79c-.32,2.05-1.26,3-2.3,3.38.61.4,1.55,1.08,1.26,3.13L187.63,75a4.54,4.54,0,0,0,0,2.09l0,.18H183.7a4.91,4.91,0,0,1,0-2.27l1.26-7.92c.25-1.4,0-1.76-1.15-1.76h-1Zm2.48-15.77h1.12c1.12,0,1.44-.65,1.62-1.8l.61-3.85c.18-1.15,0-1.73-1.19-1.73h-1Z" transform="translate(-9.58 -50.23)"/></svg>