<svg id="Layer_2" data-name="Layer 2" xmlns="http://www.w3.org/2000/svg" viewBox="0 0 198.3 226.2"><title>on and</title><path d="M0,0H87a102.62,102.62,0,0,1,43.35,9.3,118.14,118.14,0,0,1,35.4,24.75,114.81,114.81,0,0,1,23.85,36,109.32,109.32,0,0,1,8.7,43.05,110.23,110.23,0,0,1-8.55,42.75A114.49,114.49,0,0,1,166.05,192a116.82,116.82,0,0,1-35.4,24.9A103.32,103.32,0,0,1,87,226.2H0ZM58.8,176.4H72.3a73,73,0,0,0,27.3-4.8,58.3,58.3,0,0,0,20.25-13.2,56.52,56.52,0,0,0,12.6-20,71.39,71.39,0,0,0,4.35-25.35,69.6,69.6,0,0,0-4.5-25.2,56.5,56.5,0,0,0-33-33.3,72.16,72.16,0,0,0-27-4.8H58.8Z"/></svg>