<svg id="Layer_2" data-name="Layer 2" xmlns="http://www.w3.org/2000/svg" viewBox="0 0 250.5 238.8"><title>on and</title><path d="M0,119.4A116.56,116.56,0,0,1,74.55,9.15Q97.5,0,125.1,0q27.3,0,50.4,9.15A119.21,119.21,0,0,1,215.25,34.5a116,116,0,0,1,25.95,38,118.15,118.15,0,0,1,9.3,47,118.15,118.15,0,0,1-9.3,46.95,116,116,0,0,1-25.95,38,119.21,119.21,0,0,1-39.75,25.35q-23.1,9.15-50.4,9.15-27.6,0-50.55-9.15A117,117,0,0,1,0,119.4Zm61.5,0a60.27,60.27,0,0,0,5.1,24.9,62.28,62.28,0,0,0,34.05,32.85,66.6,66.6,0,0,0,48.9,0A64.13,64.13,0,0,0,170,164.1a61.79,61.79,0,0,0,14-19.8,60.27,60.27,0,0,0,5.1-24.9,60.27,60.27,0,0,0-5.1-24.9,61.79,61.79,0,0,0-14-19.8,64.13,64.13,0,0,0-20.4-13.05,66.6,66.6,0,0,0-48.9,0A62.28,62.28,0,0,0,66.6,94.5,60.27,60.27,0,0,0,61.5,119.4Z"/></svg>