<svg id="Layer_1" data-name="Layer 1" xmlns="http://www.w3.org/2000/svg" viewBox="0 0 104.96 83.9"><defs><style>.cls-1{fill:red;}.cls-2{fill:#fff;}</style></defs><title>heart_comment</title><rect class="cls-1" width="104.96" height="61.16" rx="12" ry="12"/><polygon class="cls-1" points="52.48 83.9 72.47 57.74 32.49 57.74 52.48 83.9"/><path class="cls-2" d="M36.62,47.1S56.27,33,55.45,23.07c-.14-1.8-.75-7.55-7.46-8.81-9.05-1.7-11.37,7.85-11.37,7.85s-1.81-8.78-10.53-7.77a9.33,9.33,0,0,0-8.57,7.77C15.25,35.12,36.62,47.1,36.62,47.1Z"/><path class="cls-2" d="M84.13,37.61v3.74H67.06V37.61h6.7V22.71c-1,1-2.63,1.66-5.29,1.66H67.28v-4h1c3.67,0,5.4-1.66,6.27-4.07H78V37.61Z"/></svg>