<svg xmlns="http://www.w3.org/2000/svg" viewBox="0 0 181.37 27.39"><defs><style>.cls-1{fill:#fff;}</style></defs><title>Asset 1</title><g id="Layer_2" data-name="Layer 2"><g id="Layer_1-2" data-name="Layer 1"><path class="cls-1" d="M4,27H0L4.25.25h4Z"/><path class="cls-1" d="M9.29,7.34A18,18,0,0,0,10.4,4.28H9l.65-4H13.1l-.47,3a13.23,13.23,0,0,1-1.44,4.14Z"/><path class="cls-1" d="M18.47.25l-3.6,22.64h4.82L19,27H10.26L14.51.25Z"/><path class="cls-1" d="M28.44.25l-3.6,22.64h4.82L29,27H20.23L24.48.25Z"/><path class="cls-1" d="M38,.25h5.8c3.28,0,4.32,1.76,3.92,4.36l-.65,4.1c-.4,2.34-1.33,3.31-2.59,3.71.83.36,2.05,1.33,1.66,3.92L45.29,22c-.47,3-1.62,5-4.64,5H33.8Zm1.62,14.58-1.33,8.42h1.37c1.26,0,1.48-.65,1.66-1.8l.76-4.86c.18-1.15-.14-1.76-1.44-1.76ZM41.4,3.89l-1.08,6.95h1.19c1,0,1.4-.54,1.58-1.66l.58-3.6c.18-1.12,0-1.69-1.15-1.69Z"/><path class="cls-1" d="M59,.25l-.61,3.89h-5l-1.12,7h3.92l-.65,4.07H51.66L50.43,23h5.22L55,27H45.83L50.07.25Z"/><path class="cls-1" d="M68.11,16,66.34,27h-4l1.8-11.27L63,.25h3.74l.22,10L70.3.25H74Z"/><path class="cls-1" d="M79.56,0c3.85,0,5.29,2.41,4.72,6.16L81.93,21c-.58,3.67-1.91,6.33-5.51,6.33h-.68c-3.74,0-5.22-2.59-4.64-6.33L73.44,6.16C74,2.41,75.27,0,78.87,0ZM77.51,5.94,75.09,21.27c-.25,1.26,0,2.12,1.15,2.12s1.37-.83,1.62-2.12L80.28,5.94c.25-1.44-.22-2.05-1.19-2.05S77.76,4.54,77.51,5.94Z"/><path class="cls-1" d="M86.72.25h4L87.37,21.53c-.18,1.15.11,1.87,1.08,1.87s1.3-.72,1.48-1.87L93.31.25h4L94,21.09c-.61,3.89-2.09,6.3-5.54,6.3h-.54c-3.49,0-5.15-2.3-4.54-6.3Z"/><path class="cls-1" d="M98.67,27h-4L99,.25h6c2.84,0,4.18,1.3,3.74,4.14l-.76,4.79c-.32,2.05-1.26,3-2.3,3.38.61.4,1.55,1.08,1.26,3.13l-1.44,9.07a4.54,4.54,0,0,0,0,2.09l0,.18h-3.92a4.91,4.91,0,0,1,0-2.27l1.26-7.92c.25-1.4,0-1.76-1.15-1.76h-1Zm2.48-15.77h1.12c1.12,0,1.44-.65,1.62-1.8l.61-3.85c.18-1.15,0-1.73-1.19-1.73h-1Z"/><path class="cls-1" d="M114.51.25h4.9L119,14.4,123.19.25h4.93L123.87,27h-3.71l2.77-17.31L117.82,27h-1.58l.29-17.31L113.75,27h-3.49Z"/><path class="cls-1" d="M129.49,27h-4L129.77.25h4Z"/><path class="cls-1" d="M135.1,27h-4L135.39.25h6c2.84,0,4.18,1.3,3.74,4.14l-.76,4.79c-.32,2.05-1.26,3-2.3,3.38.61.4,1.55,1.08,1.26,3.13l-1.44,9.07a4.54,4.54,0,0,0,0,2.09l0,.18h-3.92a4.91,4.91,0,0,1,0-2.27l1.26-7.92c.25-1.4,0-1.76-1.15-1.76h-1Zm2.48-15.77h1.12c1.12,0,1.44-.65,1.62-1.8l.61-3.85c.18-1.15,0-1.73-1.19-1.73h-1Z"/><path class="cls-1" d="M147.05,27h-4L147.34.25h6c2.84,0,4.18,1.3,3.74,4.14l-.76,4.79c-.32,2.05-1.26,3-2.3,3.38.61.4,1.55,1.08,1.26,3.13l-1.44,9.07a4.54,4.54,0,0,0,0,2.09l0,.18H149.9a4.91,4.91,0,0,1,0-2.27l1.26-7.92c.25-1.4,0-1.76-1.15-1.76h-1Zm2.48-15.77h1.12c1.12,0,1.44-.65,1.62-1.8l.61-3.85c.18-1.15,0-1.73-1.19-1.73h-1Z"/><path class="cls-1" d="M164.37,0c3.85,0,5.29,2.41,4.72,6.16L166.74,21c-.58,3.67-1.91,6.33-5.51,6.33h-.68c-3.74,0-5.22-2.59-4.64-6.33l2.34-14.87c.58-3.74,1.84-6.16,5.44-6.16Zm-2.05,5.94L159.9,21.27c-.25,1.26,0,2.12,1.15,2.12s1.37-.83,1.62-2.12l2.41-15.33c.25-1.44-.22-2.05-1.19-2.05S162.57,4.54,162.32,5.94Z"/><path class="cls-1" d="M171.28,27h-4L171.57.25h6c2.84,0,4.18,1.3,3.74,4.14l-.76,4.79c-.32,2.05-1.26,3-2.3,3.38.61.4,1.55,1.08,1.26,3.13L178,24.77a4.54,4.54,0,0,0,0,2.09l0,.18h-3.92a4.91,4.91,0,0,1,0-2.27l1.26-7.92c.25-1.4,0-1.76-1.15-1.76h-1Zm2.48-15.77h1.12c1.12,0,1.44-.65,1.62-1.8l.61-3.85c.18-1.15,0-1.73-1.19-1.73h-1Z"/></g></g></svg>